<svg width="47" height="28" viewBox="0 0 47 28" fill="none" xmlns="http://www.w3.org/2000/svg">
<path opacity="0.38" fill-rule="evenodd" clip-rule="evenodd" d="M47 13.9995C47 21.7319 40.7043 28 32.9382 28C29.7559 28 26.8223 26.9459 24.4651 25.1733C26.4434 23.3462 27.9366 21.0069 28.7297 18.3693H27.4219C26.6536 20.7034 25.2844 22.7668 23.499 24.3779C21.7127 22.7668 20.3445 20.7031 19.5755 18.3693H18.2686C19.0611 21.0069 20.5553 23.3462 22.5326 25.1733C20.1774 26.9459 17.2435 28 14.0602 28C6.29474 28 0 21.7319 0 13.9995C0 6.26815 6.29474 0 14.0602 0C17.2431 0 20.177 1.05216 22.5326 2.82668V2.82765C20.2746 4.91249 18.6515 7.66345 17.9739 10.766H19.254C19.9205 7.96532 21.4287 5.49121 23.4993 3.62409C25.57 5.49088 27.0782 7.965 27.7437 10.766H29.0248C28.3492 7.66345 26.7221 4.91249 24.4651 2.82765V2.82668C26.8223 1.05216 29.7559 0 32.9382 0C40.7043 0.000324943 47 6.26815 47 13.9995ZM8.57326 10.6984C6.93772 11.4848 6.13415 13.1937 6.37829 14.8661C6.44977 15.9069 7.32482 16.8714 8.4019 17.2441C9.60628 17.6431 10.7503 17.532 11.9543 17.1989C12.0803 16.7372 12.188 16.2335 12.3297 15.5904C11.3257 16.1016 10.4216 16.2299 9.47638 15.8813C8.93229 15.6642 8.54356 15.1622 8.47142 14.6481C8.40158 13.5797 8.72992 12.6162 9.70615 11.9969C10.7382 11.3555 12.0855 11.5771 13.0905 12.0014C13.2507 11.3649 13.3131 11.0711 13.4335 10.5489C11.8264 10.1366 10.0923 10.0186 8.57326 10.6984ZM31.7305 17.4085H33.6435C33.7013 16.8974 33.8012 16.3813 33.904 15.8913L34.8201 11.7236H32.7835C32.7835 11.7236 32.2257 14.3196 32.2276 14.3176C32.0282 15.232 31.7103 15.8699 30.6509 15.8699C29.7507 15.8699 29.7056 15.1992 29.8946 14.3176C29.8936 14.3202 30.4478 11.7236 30.4478 11.7236H28.4105L27.8553 14.3176C27.3817 16.5194 28.2317 17.4988 29.5653 17.4988C31.0327 17.4988 31.5706 16.8057 31.8902 16.4902C31.851 16.7147 31.7305 17.4085 31.7305 17.4085ZM35.7774 13.5235C35.7774 14.2442 36.253 14.7371 37.334 15.1043C38.1682 15.3951 38.2998 15.48 38.2998 15.7321C38.2998 16.0918 37.9254 16.2452 37.1218 16.2452C36.5108 16.2452 35.9419 16.1835 35.2826 16.0262C35.2826 16.0262 35.0258 17.2048 35 17.3406C35.5718 17.4403 36.5627 17.4991 37.1375 17.4991C39.2953 17.4991 40.2966 16.8983 40.2966 15.6028C40.2966 14.8275 39.8769 14.3725 38.8524 14.021C37.9887 13.7396 37.8937 13.6729 37.8937 13.4045C37.8937 13.1027 38.2348 12.9431 38.8977 12.9431C39.2972 12.9431 39.8553 12.9766 40.3759 13.0309L40.6605 11.7113C40.1311 11.6495 39.322 11.5975 38.8586 11.5975C36.568 11.5972 35.7703 12.4768 35.7774 13.5235ZM13.4949 17.4085H15.5397L16.7558 11.7236H14.712L13.4949 17.4085ZM27.448 11.7018C25.9447 11.5033 25.5145 12.238 25.1114 12.6052C25.1594 12.3079 25.2504 12.02 25.2318 11.7239H23.3613C23.0897 13.4848 22.6132 15.2668 22.2362 17.0286L22.139 17.4088H24.27C24.5229 16.2553 24.817 14.5119 25.1581 13.9839C25.4936 13.4588 26.0592 13.0361 26.8004 13.2902L27.448 11.7018ZM22.31 11.7018C20.8083 11.5033 20.3784 12.238 19.975 12.6052C20.0213 12.3079 20.1105 12.02 20.0945 11.7239H18.2229C17.955 13.4848 17.4758 15.2668 17.1011 17.0286L17.0039 17.4088H19.1329C19.3849 16.2553 19.679 14.5119 20.0171 13.9839C20.3572 13.4588 20.9209 13.0361 21.6605 13.2902L22.31 11.7018Z" fill="white"/>
</svg>
