<svg width="47" height="28" viewBox="0 0 47 28" fill="none" xmlns="http://www.w3.org/2000/svg">
<path opacity="0.38" fill-rule="evenodd" clip-rule="evenodd" d="M47 13.9998C47 21.732 40.7043 28 32.9396 28C29.757 28 26.8215 26.9496 24.4666 25.1775C24.4666 25.1759 24.4666 25.1759 24.4666 25.1759C26.4448 23.3468 27.9384 21.0102 28.7308 18.369H27.4227C26.6547 20.704 25.2858 22.7674 23.5005 24.3803C21.7145 22.7674 20.3466 20.704 19.5783 18.369H18.2688C19.062 21.0102 20.5571 23.3468 22.5337 25.1759C20.1779 26.9493 17.2437 27.9997 14.0617 27.9997C6.29502 27.9997 0 21.7316 0 13.9995C0 6.26805 6.29502 0 14.0617 0C17.2437 0 20.1779 1.05166 22.5337 2.82675C20.2689 4.91805 18.6383 7.68272 17.9666 10.7984H19.2483C19.9083 7.98561 21.4221 5.49945 23.5005 3.62329C25.5786 5.49945 27.0907 7.98561 27.7527 10.7984H29.0327C28.3604 7.68272 26.7304 4.91805 24.4663 2.82675C26.8211 1.05199 29.7567 0 32.9393 0C40.7043 0.000324988 47 6.26837 47 13.9998ZM23.4768 15.9102C22.8864 16.1485 22.3544 16.2543 21.7639 16.2543C20.7795 16.2543 20.1996 15.9086 20.318 15.119H23.6296C23.7751 14.559 23.8345 14.1644 23.8345 13.7604C23.8345 12.5381 22.9585 11.7607 21.588 11.7607C19.9133 11.7607 18.6786 13.1483 18.6786 15.0396C18.6786 16.6577 19.648 17.5046 21.512 17.5046C22.092 17.5059 22.6455 17.432 23.2164 17.2825L23.4768 15.9102ZM20.4897 14.0036C20.6454 13.3693 21.0237 13.0171 21.5528 13.0171C22.5101 13.0356 22.3266 13.8834 22.3266 14.0036H20.4897ZM24.691 13.6337C24.691 14.3337 25.0846 14.8117 25.9802 15.1727C26.666 15.4537 26.7727 15.5351 26.7727 15.7829C26.7727 16.1287 26.4705 16.2879 25.7994 16.284C25.2964 16.2804 24.8356 16.2195 24.2915 16.0694L24.0496 17.3437C24.5333 17.4544 25.2122 17.4932 25.8115 17.5046C27.5985 17.5046 28.4242 16.9182 28.4242 15.6572C28.4242 14.9002 28.0802 14.4519 27.2303 14.1198C26.5207 13.8388 26.4382 13.7767 26.4382 13.5207C26.4382 13.2183 26.7188 13.0666 27.2675 13.0666C27.6004 13.0666 28.0544 13.0962 28.4862 13.1499L28.7281 11.8694C28.2875 11.8085 27.6213 11.7603 27.2349 11.7603C25.3418 11.7607 24.6845 12.6111 24.691 13.6337ZM18.0549 14.4721C18.1038 14.2263 18.2024 13.6604 18.191 13.3785C18.191 12.32 17.4318 11.7607 15.995 11.7607C15.3768 11.7607 14.8311 11.8401 13.9978 12.0527L13.7615 13.2935C14.2426 13.1633 14.7616 13.0487 15.5325 13.0447C16.3119 13.0447 16.6041 13.1815 16.6041 13.5523C16.6041 13.6513 16.5903 13.7272 16.5401 13.9072C16.2897 13.8815 16.0469 13.8675 15.857 13.8675C14.0005 13.8675 12.9227 14.6463 12.9227 15.9974C12.9227 16.8866 13.5435 17.5046 14.4492 17.5046C15.2136 17.5046 15.7783 17.292 16.2029 16.8332L16.1696 17.4137H17.5591C17.5999 16.9182 17.9984 14.8319 18.0549 14.4721ZM15.1382 16.3299C14.773 16.3299 14.5387 16.1098 14.5387 15.7624C14.5387 15.2076 15.0188 14.9263 15.966 14.9263C16.0874 14.9263 16.1644 14.9299 16.3387 14.9487C16.3106 15.7604 15.8175 16.3299 15.1382 16.3299ZM31.774 16.1098C31.6607 16.1449 31.5145 16.1615 31.3255 16.1615C30.9296 16.1615 30.7573 16.0378 30.7573 15.7529C30.7573 15.5771 31.2237 13.2329 31.2237 13.2329H32.0762L32.3069 11.886H31.4587L31.71 10.5648H30.0558C30.0558 10.5648 29.3169 14.5587 29.2719 14.8315C29.2242 15.1057 29.017 16.0876 29.0437 16.2986C29.0437 17.0715 29.5082 17.5042 30.3591 17.5042C30.7426 17.5042 31.0977 17.4502 31.5536 17.3261L31.774 16.1098ZM39.6935 13.074C38.8566 13.074 38.3347 14.0645 38.3347 14.9406C38.3347 15.6774 38.6924 16.1707 39.2829 16.1635C40.091 16.1635 40.6034 15.4273 40.6034 14.1807C40.6034 13.6106 40.372 13.074 39.6935 13.074ZM42.3865 14.2172C42.3865 12.8357 41.4804 11.7607 39.7679 11.7607C37.8001 11.7607 36.5281 13.0669 36.5281 14.9969C36.5281 16.3728 37.2772 17.5046 39.1432 17.5046C41.0251 17.5046 42.3865 16.5005 42.3865 14.2172ZM33.3876 11.8863C33.1771 13.595 32.8063 15.3297 32.5152 17.0403L32.4447 17.4134H34.1155C34.7164 14.1068 34.919 13.1629 36.1796 13.4967C36.2445 13.3153 36.7857 11.9306 36.7857 11.9306C35.906 11.6089 35.3414 12.0673 34.828 12.7211C34.8737 12.4281 34.9615 12.1435 34.9403 11.8863H33.3876ZM13.1613 10.6576H10.4578L8.62809 14.8393L8.49166 10.6576H5.89295L4.60926 17.4153H6.11653L7.10777 12.2497L7.38455 17.4153H8.9003L11.1762 12.2207L10.1886 17.4153H11.8509L13.1613 10.6576Z" fill="white"/>
</svg>
