<svg width="50" height="16" viewBox="0 0 50 16" fill="none" xmlns="http://www.w3.org/2000/svg">
<path fill-rule="evenodd" clip-rule="evenodd" d="M17.6163 15.8222H21.686L24.2442 0.296296H20.1744L17.6163 15.8222ZM32.3256 6.51852C30.9302 5.80741 30.0581 5.33333 30.0581 4.62222C30.0581 3.97037 30.814 3.25926 32.3837 3.25926C33.7209 3.25926 34.6512 3.55556 35.407 3.85185L35.7558 4.02963L36.2791 0.651852C35.4651 0.355556 34.2442 0 32.6744 0C28.6628 0 25.8721 2.07407 25.814 5.0963C25.814 7.34815 27.8488 8.59259 29.3605 9.3037C30.9302 10.0741 31.4535 10.5481 31.4535 11.2C31.4535 12.2667 30.1744 12.7407 29.0116 12.7407C27.3837 12.7407 26.5116 12.5037 25.1744 11.9111L24.6512 11.6741L24.0698 15.1704C25 15.5852 26.7442 16 28.6047 16C32.8488 16 35.6395 13.9259 35.6395 10.7259C35.7558 8.94815 34.6512 7.64444 32.3256 6.51852ZM46.686 0.296296H43.5465C42.5581 0.296296 41.8605 0.592593 41.4535 1.6L35.4651 15.8222H39.7093C39.7093 15.8222 40.407 13.9259 40.5814 13.5111C41.0465 13.5111 45.1744 13.5111 45.7558 13.5111C45.8721 14.0444 46.2209 15.8222 46.2209 15.8222H50L46.686 0.296296ZM41.686 10.3111C42.0349 9.42222 43.314 5.98519 43.314 5.98519C43.314 6.04444 43.6628 5.0963 43.8372 4.5037L44.1279 5.86667C44.1279 5.86667 44.8837 9.54074 45.0581 10.3704H41.686V10.3111ZM14.186 0.296296L10.2326 10.8444L9.82558 8.71111L8.43023 1.6C8.19767 0.592593 7.5 0.296296 6.56977 0.296296H0.0581395L0 0.592593C1.56977 1.00741 3.02326 1.6 4.24419 2.31111L7.84884 15.763H12.1512L18.5465 0.296296H14.186Z" fill="white" fill-opacity="0.376076"/>
</svg>
